<svg width="309" height="437" xmlns="http://www.w3.org/2000/svg" xmlns:xlink="http://www.w3.org/1999/xlink" xml:space="preserve" overflow="hidden"><defs><linearGradient x1="746.432" y1="210.136" x2="634.36" y2="561.19" gradientUnits="userSpaceOnUse" spreadMethod="pad" id="fill0"><stop offset="0" stop-color="#0000FF"/><stop offset="0.02" stop-color="#0000FF"/><stop offset="0.08" stop-color="#0094FF"/><stop offset="0.16" stop-color="#48FF91"/><stop offset="0.42" stop-color="#0094FF"/><stop offset="0.68" stop-color="#0038FF"/><stop offset="0.9" stop-color="#0500FF"/><stop offset="1" stop-color="#0500FF"/></linearGradient></defs><g transform="translate(-488 -139)"><path d="M490.89 281.366 638.048 233.32 638.048 565.928C532.934 521.578 490.89 436.578 490.89 388.54L490.89 281.366Z" fill="#0500FF" transform="matrix(1 0 0 1.00584 4.22783 -1.17151)"/><path d="M785.213 281.366 638.055 233.32 638.055 565.928C743.169 521.578 785.213 436.578 785.213 388.54L785.213 281.366Z" fill="url(#fill0)" transform="matrix(1 0 0 1.00584 4.22783 -1.17151)"/><path d="M548.836 153.405 569.37 153.405 569.37 164.908C576.102 154.568 583.843 153.405 595.18 153.405L595.18 173.739 590.017 173.739C576.434 173.739 569.928 180.132 569.928 192.791L569.928 214.401 548.829 214.401 548.829 153.405Z" fill="#0500FF" transform="matrix(1 0 0 1.00584 4.22783 -1.17151)"/><path d="M663.712 214.395 642.613 214.395 642.613 208.58C638.008 213.93 631.728 216.249 623.987 216.249 609.288 216.249 600.981 207.537 600.981 191.502L600.981 153.398 622.08 153.398 622.08 186.744C622.08 194.294 625.781 198.706 632.06 198.706 638.341 198.706 642.613 194.406 642.613 187.09L642.613 153.398 663.712 153.398 663.712 214.395Z" fill="#0500FF" transform="matrix(1 0 0 1.00584 4.22783 -1.17151)"/><path d="M668.869 195.569 688.626 195.569C689.529 199.982 692.552 201.835 699.842 201.835 705.79 201.835 709.272 200.446 709.272 197.888 709.272 195.908 707.584 194.633 702.766 193.589L686.831 189.987C676.172 187.554 670.782 181.395 670.782 171.514 670.782 158.495 680.318 151.757 698.832 151.757 717.346 151.757 726.436 158.323 728.011 172.384L708.374 172.384C708.042 168.669 704.221 166.397 697.942 166.397 692.898 166.397 689.642 168.018 689.642 170.463 689.642 172.55 691.768 174.178 696.042 175.235L712.76 179.302C723.752 181.966 729.034 187.548 729.034 196.613 729.034 209.166 718.149 216.602 699.643 216.602 681.136 216.602 668.896 208.587 668.896 195.569L668.876 195.569Z" fill="#0500FF" transform="matrix(1 0 0 1.00584 4.22783 -1.17151)"/><path d="M785.213 172.377 785.213 153.405 733.148 153.405 733.148 172.384 748.684 172.384 748.684 214.395 769.67 214.395 769.67 172.37 785.213 172.37Z" fill="#0500FF" transform="matrix(1 0 0 1.00584 4.22783 -1.17151)"/><path d="M542.968 172.377 542.968 153.405 490.903 153.405 490.903 172.384 506.439 172.384 506.439 214.395 527.425 214.395 527.425 172.37 542.961 172.37Z" fill="#0500FF" transform="matrix(1 0 0 1.00584 4.22783 -1.17151)"/></g></svg>