<svg width="444" height="494" xmlns="http://www.w3.org/2000/svg" xmlns:xlink="http://www.w3.org/1999/xlink" xml:space="preserve" overflow="hidden"><defs><linearGradient x1="748.635" y1="210.756" x2="636.232" y2="562.846" gradientUnits="userSpaceOnUse" spreadMethod="pad" id="fill0"><stop offset="0" stop-color="#0000FF"/><stop offset="0.02" stop-color="#0000FF"/><stop offset="0.08" stop-color="#0094FF"/><stop offset="0.16" stop-color="#48FF91"/><stop offset="0.42" stop-color="#0094FF"/><stop offset="0.68" stop-color="#0038FF"/><stop offset="0.9" stop-color="#0500FF"/><stop offset="1" stop-color="#0500FF"/></linearGradient></defs><g transform="translate(-416 -113)"><path d="M492.339 282.196 639.931 234.009 639.931 567.598C534.507 523.117 492.339 437.867 492.339 389.687L492.339 282.196Z" fill="#0500FF" transform="matrix(1 0 0 1.00184 0.357034 -0.562887)"/><path d="M787.531 282.196 639.938 234.009 639.938 567.598C745.362 523.117 787.531 437.867 787.531 389.687L787.531 282.196Z" fill="url(#fill0)" transform="matrix(1 0 0 1.00184 0.357034 -0.562887)"/><path d="M550.456 153.858 571.05 153.858 571.05 165.395C577.802 155.024 585.566 153.858 596.937 153.858L596.937 174.252 591.758 174.252C578.135 174.252 571.61 180.664 571.61 193.36L571.61 215.034 550.449 215.034 550.449 153.858Z" fill="#0500FF" transform="matrix(1 0 0 1.00184 0.357034 -0.562887)"/><path d="M665.671 215.028 644.51 215.028 644.51 209.196C639.891 214.561 633.593 216.887 625.829 216.887 611.086 216.887 602.755 208.15 602.755 192.067L602.755 153.851 623.916 153.851 623.916 187.295C623.916 194.867 627.628 199.292 633.926 199.292 640.225 199.292 644.51 194.98 644.51 187.642L644.51 153.851 665.671 153.851 665.671 215.028Z" fill="#0500FF" transform="matrix(1 0 0 1.00184 0.357034 -0.562887)"/><path d="M670.843 196.146 690.658 196.146C691.564 200.572 694.596 202.431 701.908 202.431 707.873 202.431 711.365 201.038 711.365 198.472 711.365 196.486 709.672 195.207 704.84 194.16L688.858 190.548C678.168 188.108 672.762 181.93 672.762 172.02 672.762 158.963 682.326 152.205 700.895 152.205 719.463 152.205 728.58 158.79 730.16 172.893L710.465 172.893C710.132 169.167 706.3 166.888 700.002 166.888 694.943 166.888 691.677 168.514 691.677 170.966 691.677 173.059 693.81 174.692 698.096 175.752L714.864 179.831C725.888 182.503 731.186 188.102 731.186 197.193 731.186 209.783 720.269 217.241 701.708 217.241 683.146 217.241 670.87 209.203 670.87 196.146L670.85 196.146Z" fill="#0500FF" transform="matrix(1 0 0 1.00184 0.357034 -0.562887)"/><path d="M787.531 172.886 787.531 153.858 735.312 153.858 735.312 172.893 750.894 172.893 750.894 215.028 771.942 215.028 771.942 172.879 787.531 172.879Z" fill="#0500FF" transform="matrix(1 0 0 1.00184 0.357034 -0.562887)"/><path d="M544.571 172.886 544.571 153.858 492.352 153.858 492.352 172.893 507.934 172.893 507.934 215.028 528.982 215.028 528.982 172.879 544.564 172.879Z" fill="#0500FF" transform="matrix(1 0 0 1.00184 0.357034 -0.562887)"/></g></svg>